<svg width="296" height="108" viewBox="0 0 296 108" fill="none" xmlns="http://www.w3.org/2000/svg">
<g clip-path="url(#clip0_8_8)">
<rect width="296" height="108" fill="white"/>
<path d="M56.75 107L75.2 60.65H120.05L123.35 68.75C129.05 83.15 130.4 96.65 131.9 107H140.9L98.75 1.7H80.75L38.75 107H56.75ZM97.7 4.55L119.15 58.4H76.1L97.7 4.55ZM192.382 107C218.182 107 243.382 91.4 243.382 52.4C243.382 18.05 224.932 1.7 194.482 1.7H155.182V107H192.382ZM173.182 4.09999H187.882C212.482 4.09999 225.382 17.75 225.382 52.4C225.382 93.65 209.182 104.6 184.882 104.6H173.182V4.09999Z" fill="black"/>
<rect x="-9" y="43" width="302" height="26" fill="white"/>
<path d="M101.516 63C101.617 62.7578 101.867 62.3125 102.273 61.6719L103.531 59.6875H112.75L114.016 61.6719C114.414 62.2891 114.664 62.7344 114.766 63H115.891C115.648 62.7188 115.336 62.2734 114.961 61.6719L109.5 53.0781C109.18 52.5859 108.961 52.1641 108.844 51.7969H107.516C107.414 52.0625 107.164 52.5078 106.766 53.125L101.328 61.6719C101 62.2031 100.688 62.6484 100.398 63H101.516ZM107.039 54.1328L108.078 52.5078H108.172C108.281 52.6875 108.453 52.9609 108.68 53.3125C108.906 53.6641 109.078 53.9375 109.195 54.1172L112.273 58.9219H104.016L107.039 54.1328ZM124.445 63C128.508 63.0469 131.367 60.7734 131.32 57.3984C131.367 54.0234 128.508 51.7578 124.445 51.7969H118.234C118.297 52.0703 118.328 52.5078 118.328 53.125V61.6719C118.328 62.2891 118.297 62.7266 118.234 63H124.445ZM119.164 52.5703H124.391C126.133 52.5703 127.625 53 128.719 53.8047C129.812 54.6094 130.461 55.8672 130.461 57.3984C130.461 58.4141 130.195 59.2891 129.656 60.0234C128.586 61.5 126.727 62.2188 124.391 62.2188H119.164V52.5703ZM135.492 63C135.43 62.7266 135.398 62.2891 135.398 61.6719V53.125C135.398 52.5078 135.43 52.0703 135.492 51.7969H134.453C134.516 52.0703 134.547 52.5078 134.547 53.125V61.6719C134.547 62.2891 134.516 62.7266 134.453 63H135.492ZM145.039 63C144.969 62.6875 144.938 62.2422 144.938 61.6719V52.5703H149.82C150.406 52.5703 150.844 52.5938 151.148 52.6484L150.828 51.7969H138.219L137.898 52.6484C138.203 52.5938 138.641 52.5703 139.227 52.5703H144.109V61.6719C144.109 62.1719 144.078 62.6172 144.016 63H145.039ZM154.57 63C154.516 62.6953 154.492 62.2578 154.492 61.6719V57.7188H165.516V61.6719C165.516 62.2891 165.484 62.7266 165.422 63H166.461C166.391 62.7031 166.359 62.2578 166.359 61.6719V53.125C166.359 52.5391 166.391 52.0938 166.461 51.7969H165.422C165.484 52.0703 165.516 52.5078 165.516 53.125V56.9219H154.492V53.125C154.492 52.5391 154.516 52.1016 154.57 51.7969H153.547C153.602 52.1016 153.625 52.5391 153.625 53.125V61.6719C153.625 62.2578 153.602 62.6953 153.547 63H154.57ZM175.922 63.2422C179.531 63.2734 182.109 61.8984 182.07 59.9141C182.07 58.9531 181.492 58.2422 180.594 57.8359C179.688 57.4297 178.469 57.1562 177.18 56.9922C173.969 56.5938 170.344 56.5 170.344 54.5703C170.344 52.9375 173.266 52.3047 175.555 52.3281C176.484 52.3359 177.422 52.4453 178.375 52.6406C179.328 52.8438 180.117 53.125 180.742 53.4922V52.6172C180.039 52.2969 179.227 52.0391 178.297 51.8438C177.367 51.6562 176.438 51.5625 175.523 51.5625C173.969 51.5625 172.539 51.8203 171.383 52.2969C170.219 52.7734 169.477 53.6094 169.477 54.6172C169.477 55.5469 170.055 56.2422 170.961 56.6406C171.867 57.0469 173.078 57.3203 174.375 57.4766C177.594 57.9062 181.219 58 181.219 59.9609C181.242 61.5156 179.008 62.4922 175.961 62.4688C174.758 62.4688 173.641 62.3594 172.602 62.1406C171.562 61.9297 170.5 61.5703 169.414 61.0781L169.336 61.9766C170.438 62.4297 171.5 62.75 172.539 62.9453C173.578 63.1484 174.703 63.2422 175.922 63.2422Z" fill="black"/>
<line x1="5" y1="55.6" x2="35" y2="55.6" stroke="black" stroke-width="0.8"/>
<line x1="259" y1="55.6" x2="289" y2="55.6" stroke="black" stroke-width="0.8"/>
</g>
<defs>
<clipPath id="clip0_8_8">
<rect width="296" height="108" fill="white"/>
</clipPath>
</defs>
</svg>
